<svg width="25" height="24" viewBox="0 0 25 24" fill="none" xmlns="http://www.w3.org/2000/svg">
<path d="M12.3334 22C12.1 22 11.9 21.9333 11.7334 21.8C11.5667 21.6667 11.4417 21.4917 11.3584 21.275C11.0417 20.3417 10.6417 19.4667 10.1584 18.65C9.69171 17.8333 9.03337 16.875 8.18337 15.775C7.33337 14.675 6.64171 13.625 6.10837 12.625C5.59171 11.625 5.33337 10.4167 5.33337 9C5.33337 7.05 6.00837 5.4 7.35837 4.05C8.72504 2.68333 10.3834 2 12.3334 2C14.2834 2 15.9334 2.68333 17.2834 4.05C18.65 5.4 19.3334 7.05 19.3334 9C19.3334 10.5167 19.0417 11.7833 18.4584 12.8C17.8917 13.8 17.2334 14.7917 16.4834 15.775C15.5834 16.975 14.9 17.975 14.4334 18.775C13.9834 19.5583 13.6084 20.3917 13.3084 21.275C13.225 21.5083 13.0917 21.6917 12.9084 21.825C12.7417 21.9417 12.55 22 12.3334 22ZM12.3334 11.5C13.0334 11.5 13.625 11.2583 14.1084 10.775C14.5917 10.2917 14.8334 9.7 14.8334 9C14.8334 8.3 14.5917 7.70833 14.1084 7.225C13.625 6.74167 13.0334 6.5 12.3334 6.5C11.6334 6.5 11.0417 6.74167 10.5584 7.225C10.075 7.70833 9.83337 8.3 9.83337 9C9.83337 9.7 10.075 10.2917 10.5584 10.775C11.0417 11.2583 11.6334 11.5 12.3334 11.5Z" fill="#4A4459"/>
</svg>
